<svg width="14" height="14" viewBox="0 0 14 14" fill="none" xmlns="http://www.w3.org/2000/svg">
<path d="M13.7301 1.33038C14.023 1.03749 14.023 0.562612 13.7301 0.269719C13.4372 -0.0231745 12.9624 -0.0231745 12.6695 0.269719L13.7301 1.33038ZM0.269475 12.6697C-0.0234186 12.9626 -0.0234186 13.4375 0.269475 13.7304C0.562368 14.0233 1.03724 14.0233 1.33013 13.7304L0.269475 12.6697ZM1.33013 0.269719C1.03724 -0.0231745 0.562368 -0.0231745 0.269475 0.269719C-0.0234186 0.562612 -0.0234186 1.03749 0.269475 1.33038L1.33013 0.269719ZM12.6695 13.7304C12.9624 14.0233 13.4372 14.0233 13.7301 13.7304C14.023 13.4375 14.023 12.9626 13.7301 12.6697L12.6695 13.7304ZM12.6695 0.269719L0.269475 12.6697L1.33013 13.7304L13.7301 1.33038L12.6695 0.269719ZM0.269475 1.33038L12.6695 13.7304L13.7301 12.6697L1.33013 0.269719L0.269475 1.33038Z" fill="black"/>
</svg>
